<?xml version="1.0" encoding="UTF-8"?>
<!DOCTYPE svg PUBLIC "-//W3C//DTD SVG 1.1//EN" "http://www.w3.org/Graphics/SVG/1.1/DTD/svg11.dtd">
<svg xmlns="http://www.w3.org/2000/svg" version="1.1" width="1024px" height="1024px" style="shape-rendering:geometricPrecision; text-rendering:geometricPrecision; image-rendering:optimizeQuality; fill-rule:evenodd; clip-rule:evenodd" xmlns:xlink="http://www.w3.org/1999/xlink">
<g><path style="opacity:1" fill="#fefefe" d="M -0.5,-0.5 C 340.833,-0.5 682.167,-0.5 1023.5,-0.5C 1023.5,340.833 1023.5,682.167 1023.5,1023.5C 682.167,1023.5 340.833,1023.5 -0.5,1023.5C -0.5,682.167 -0.5,340.833 -0.5,-0.5 Z"/></g>
<g><path style="opacity:1" fill="#010101" d="M 511.5,361.5 C 566.833,361.5 622.167,361.5 677.5,361.5C 677.5,455.833 677.5,550.167 677.5,644.5C 622.167,644.5 566.833,644.5 511.5,644.5C 511.833,620.824 511.5,597.157 510.5,573.5C 509.893,573.624 509.56,573.957 509.5,574.5C 492.067,590.487 471.401,598.987 447.5,600C 414.168,600.5 380.835,600.667 347.5,600.5C 347.5,535.167 347.5,469.833 347.5,404.5C 380.835,404.333 414.168,404.5 447.5,405C 471.507,406.516 492.173,415.349 509.5,431.5C 509.56,432.043 509.893,432.376 510.5,432.5C 511.5,408.843 511.833,385.176 511.5,361.5 Z"/></g>
<g><path style="opacity:1" fill="#333134" d="M 511.5,361.5 C 511.833,385.176 511.5,408.843 510.5,432.5C 509.893,432.376 509.56,432.043 509.5,431.5C 510.167,408.167 510.833,384.833 511.5,361.5 Z"/></g>
<g><path style="opacity:1" fill="#fdfdfe" d="M 388.5,425.5 C 404.202,425.138 419.869,425.638 435.5,427C 476.693,434.525 498.359,459.192 500.5,501C 499.883,544.623 478.217,570.289 435.5,578C 419.837,578.5 404.17,578.667 388.5,578.5C 388.5,527.5 388.5,476.5 388.5,425.5 Z"/></g>
<g><path style="opacity:1" fill="#fcfdfd" d="M 557.5,425.5 C 569.838,425.333 582.171,425.5 594.5,426C 621.095,429.365 631.928,444.199 627,470.5C 621.983,484.166 612.149,492 597.5,494C 584.171,494.5 570.837,494.667 557.5,494.5C 557.5,471.5 557.5,448.5 557.5,425.5 Z"/></g>
<g><path style="opacity:1" fill="#fdfdfd" d="M 634.5,599.5 C 609.005,600.498 583.339,600.831 557.5,600.5C 557.5,572.167 557.5,543.833 557.5,515.5C 563.842,515.334 570.175,515.5 576.5,516C 595.696,544.012 615.03,571.846 634.5,599.5 Z"/></g>
<g><path style="opacity:1" fill="#585859" d="M 677.5,361.5 C 678.499,455.999 678.833,550.665 678.5,645.5C 622.5,645.5 566.5,645.5 510.5,645.5C 510.831,621.661 510.498,597.994 509.5,574.5C 509.56,573.957 509.893,573.624 510.5,573.5C 511.5,597.157 511.833,620.824 511.5,644.5C 566.833,644.5 622.167,644.5 677.5,644.5C 677.5,550.167 677.5,455.833 677.5,361.5 Z"/></g>
<g><path style="opacity:1" fill="#252527" d="M 634.5,599.5 C 635.043,599.56 635.376,599.893 635.5,600.5C 609.336,601.829 583.336,601.829 557.5,600.5C 583.339,600.831 609.005,600.498 634.5,599.5 Z"/></g>
</svg>
